<?xml version="1.0" encoding="utf-8"?>
<!-- Generator: Adobe Illustrator 18.1.0, SVG Export Plug-In . SVG Version: 6.00 Build 0)  -->
<svg version="1.1" id="Layer_1" xmlns="http://www.w3.org/2000/svg" xmlns:xlink="http://www.w3.org/1999/xlink" x="0px" y="0px"
	 viewBox="0 0 392.2 379.4" enable-background="new 0 0 392.2 379.4" xml:space="preserve">
<g>
	<path fill="#FFFFFF" d="M80.2,230.1c-5.4,0-9.6,1.7-12.7,5.2s-4.6,8.1-4.6,14.1c0,6.1,1.5,10.9,4.4,14.2s7.1,5.1,12.5,5.1
		c3.6,0,6.9-0.5,9.9-1.4v2.6c-2.8,1-6.4,1.5-10.6,1.5c-6,0-10.8-1.9-14.2-5.8s-5.2-9.3-5.2-16.3c0-4.4,0.8-8.2,2.5-11.5
		s4-5.9,7.1-7.7s6.7-2.7,10.8-2.7c4.2,0,7.9,0.8,11.2,2.3l-1.2,2.7C87,230.9,83.7,230.1,80.2,230.1z"/>
	<path fill="#FFFFFF" d="M125.4,254.9c0,5.2-1.3,9.3-3.8,12.2s-6,4.4-10.4,4.4c-2.8,0-5.3-0.7-7.4-2s-3.8-3.3-4.9-5.8
		s-1.7-5.4-1.7-8.7c0-5.2,1.3-9.2,3.8-12.1s6-4.4,10.4-4.4c4.4,0,7.8,1.5,10.3,4.4S125.4,249.8,125.4,254.9z M100.3,254.9
		c0,4.4,1,7.8,2.9,10.2s4.6,3.7,8.2,3.7s6.2-1.2,8.2-3.7s2.9-5.9,2.9-10.2c0-4.4-1-7.8-2.9-10.2s-4.7-3.6-8.2-3.6s-6.2,1.2-8.1,3.6
		S100.3,250.5,100.3,254.9z"/>
	<path fill="#FFFFFF" d="M174.6,270.9V250c0-3.1-0.6-5.4-1.8-6.8s-3.1-2.1-5.6-2.1c-3.3,0-5.7,0.9-7.2,2.7s-2.3,4.6-2.3,8.5v18.7h-3
		v-21.8c0-5.4-2.5-8.1-7.4-8.1c-3.3,0-5.8,1-7.3,2.9s-2.3,5.1-2.3,9.3v17.6h-2.9V239h2.4l0.6,4.4h0.2c0.9-1.6,2.1-2.8,3.8-3.7
		s3.4-1.3,5.4-1.3c5,0,8.2,1.9,9.7,5.7h0.1c1-1.8,2.4-3.2,4.2-4.2s3.7-1.5,6-1.5c3.5,0,6.1,0.9,7.8,2.8s2.6,4.8,2.6,8.8v20.8H174.6z
		"/>
	<path fill="#FFFFFF" d="M202,271.4c-4.9,0-8.5-1.8-10.7-5.5h-0.2l0.1,2.5c0.1,1.4,0.1,3,0.1,4.7v12.1h-2.9V239h2.5l0.6,4.5h0.2
		c2.2-3.4,5.7-5.2,10.5-5.2c4.3,0,7.6,1.4,9.8,4.2s3.4,6.9,3.4,12.3c0,5.2-1.2,9.3-3.6,12.2S206.1,271.4,202,271.4z M202,268.9
		c3.3,0,5.8-1.2,7.6-3.6s2.7-5.8,2.7-10.2c0-9.4-3.4-14-10.1-14c-3.7,0-6.4,1-8.2,3.1s-2.6,5.4-2.6,10v0.9c0,5,0.8,8.5,2.5,10.7
		S198.2,268.9,202,268.9z"/>
	<path fill="#FFFFFF" d="M227.6,270.9h-2.9v-45.6h2.9V270.9z"/>
	<path fill="#FFFFFF" d="M251.8,271.4c-4.6,0-8.2-1.4-10.8-4.3s-3.9-6.8-3.9-12c0-5.1,1.2-9.1,3.8-12.2s5.9-4.6,10.1-4.6
		c3.8,0,6.7,1.3,8.9,3.9s3.3,6.2,3.3,10.7v2.3h-22.9c0,4.4,1.1,7.7,3.1,10s4.9,3.5,8.6,3.5c1.8,0,3.4-0.1,4.8-0.4
		c1.4-0.3,3.1-0.8,5.2-1.6v2.6c-1.8,0.8-3.5,1.3-5,1.6C255.3,271.3,253.6,271.4,251.8,271.4z M250.9,241c-3.1,0-5.5,1-7.4,3
		s-2.9,4.9-3.3,8.7H260c0-3.7-0.8-6.6-2.4-8.7C256,242,253.7,241,250.9,241z"/>
	<path fill="#FFFFFF" d="M280.8,268.9c1.8,0,3.4-0.2,4.8-0.5v2.3c-1.4,0.5-3,0.7-4.9,0.7c-2.8,0-4.9-0.8-6.2-2.3s-2-3.9-2-7.1v-20.6
		h-4.7v-1.7l4.7-1.3l1.5-7.2h1.5v7.7h9.3v2.5h-9.3v20.2c0,2.4,0.4,4.2,1.3,5.4S279,268.9,280.8,268.9z"/>
	<path fill="#FFFFFF" d="M306,271.4c-4.6,0-8.2-1.4-10.8-4.3s-3.9-6.8-3.9-12c0-5.1,1.2-9.1,3.8-12.2s5.9-4.6,10.1-4.6
		c3.8,0,6.7,1.3,8.9,3.9s3.3,6.2,3.3,10.7v2.3h-22.9c0,4.4,1.1,7.7,3.1,10s4.9,3.5,8.6,3.5c1.8,0,3.4-0.1,4.8-0.4s3.1-0.8,5.2-1.6
		v2.6c-1.8,0.8-3.5,1.3-5,1.6S307.8,271.4,306,271.4z M305.1,241c-3.1,0-5.5,1-7.4,3s-2.9,4.9-3.3,8.7h19.7c0-3.7-0.8-6.6-2.4-8.7
		S308,241,305.1,241z"/>
	<path fill="#FFFFFF" d="M326.1,268.6c0-1.9,0.8-2.9,2.3-2.9c1.6,0,2.4,1,2.4,2.9s-0.8,2.9-2.4,2.9
		C326.9,271.4,326.1,270.5,326.1,268.6z M329.4,259.8h-1.8l-0.8-31.8h3.5L329.4,259.8z"/>
</g>
<path fill="none" stroke="#FFFFFF" stroke-width="3" stroke-linecap="round" stroke-linejoin="round" stroke-miterlimit="10" d="
	M271.1,76.5c0,41.4-33.6,75-75,75c-41.4,0-75-33.6-75-75c0-41.4,33.6-75,75-75C237.5,1.5,271.1,35.1,271.1,76.5z"/>
<polyline fill="none" stroke="#FFFFFF" stroke-width="3" stroke-linecap="round" stroke-linejoin="round" stroke-miterlimit="10" points="
	155.7,85.3 180.2,109.9 231.7,43.3 "/>
<g>
	<path fill="#FFFFFF" d="M30.2,372.3H28v-16.7h-5.9v-1.9h14v1.9h-5.9V372.3z"/>
	<path fill="#FFFFFF" d="M48.5,372.3v-9.1c0-1.1-0.3-2-0.8-2.6c-0.5-0.6-1.3-0.8-2.4-0.8c-1.5,0-2.5,0.4-3.2,1.2
		c-0.7,0.8-1,2.1-1,3.9v7.3h-2.1v-19.9H41v6c0,0.7,0,1.3-0.1,1.8H41c0.4-0.7,1-1.2,1.8-1.6c0.8-0.4,1.6-0.6,2.6-0.6
		c1.7,0,3,0.4,3.9,1.2c0.9,0.8,1.3,2.1,1.3,3.9v9.1H48.5z"/>
	<path fill="#FFFFFF" d="M63.8,372.3l-0.4-2h-0.1c-0.7,0.9-1.4,1.5-2.1,1.8c-0.7,0.3-1.6,0.5-2.6,0.5c-1.4,0-2.5-0.4-3.3-1.1
		s-1.2-1.7-1.2-3.1c0-2.8,2.3-4.3,6.8-4.4l2.4-0.1V363c0-1.1-0.2-1.9-0.7-2.4c-0.5-0.5-1.2-0.8-2.3-0.8c-1.2,0-2.5,0.4-4,1.1
		l-0.7-1.6c0.7-0.4,1.4-0.7,2.3-0.9s1.6-0.3,2.5-0.3c1.7,0,2.9,0.4,3.7,1.1s1.2,1.9,1.2,3.6v9.6H63.8z M59,370.8
		c1.3,0,2.4-0.4,3.1-1.1c0.8-0.7,1.1-1.7,1.1-3v-1.3l-2.1,0.1c-1.7,0.1-2.9,0.3-3.6,0.8c-0.7,0.5-1.1,1.2-1.1,2.2
		c0,0.8,0.2,1.3,0.7,1.8C57.5,370.6,58.2,370.8,59,370.8z"/>
	<path fill="#FFFFFF" d="M79.6,372.3v-9.1c0-1.1-0.3-2-0.8-2.6c-0.5-0.6-1.3-0.8-2.4-0.8c-1.5,0-2.5,0.4-3.2,1.2
		c-0.7,0.8-1,2.1-1,3.9v7.3H70v-14h1.7l0.3,1.9h0.1c0.4-0.7,1-1.2,1.8-1.6s1.7-0.6,2.6-0.6c1.7,0,3,0.4,3.8,1.2
		c0.9,0.8,1.3,2.1,1.3,3.9v9.1H79.6z"/>
	<path fill="#FFFFFF" d="M88.4,365.1c0.4-0.5,0.9-1.2,1.7-2l4.5-4.8h2.5l-5.7,6l6.1,8H95l-4.9-6.6l-1.6,1.4v5.2h-2.1v-19.9h2.1v10.5
		c0,0.5,0,1.2-0.1,2.2H88.4z"/>
	<path fill="#FFFFFF" d="M105.1,358.3h2.3l3.1,8c0.7,1.8,1.1,3.1,1.3,3.9h0.1c0.1-0.4,0.3-1.2,0.7-2.2c0.4-1.1,1.5-4.3,3.5-9.7h2.3
		l-6,15.9c-0.6,1.6-1.3,2.7-2.1,3.4c-0.8,0.7-1.8,1-2.9,1c-0.6,0-1.3-0.1-1.9-0.2v-1.7c0.5,0.1,1,0.2,1.6,0.2c1.5,0,2.5-0.8,3.1-2.5
		l0.8-2L105.1,358.3z"/>
	<path fill="#FFFFFF" d="M132.9,365.3c0,2.3-0.6,4.1-1.7,5.3c-1.1,1.3-2.7,1.9-4.8,1.9c-1.3,0-2.4-0.3-3.3-0.9
		c-1-0.6-1.7-1.4-2.2-2.5c-0.5-1.1-0.8-2.4-0.8-3.9c0-2.3,0.6-4.1,1.7-5.3c1.1-1.3,2.7-1.9,4.8-1.9c2,0,3.5,0.7,4.7,2
		C132.3,361.3,132.9,363,132.9,365.3z M122.2,365.3c0,1.8,0.4,3.2,1.1,4.1c0.7,0.9,1.8,1.4,3.2,1.4c1.4,0,2.4-0.5,3.2-1.4
		c0.7-0.9,1.1-2.3,1.1-4.1c0-1.8-0.4-3.1-1.1-4.1c-0.7-0.9-1.8-1.4-3.2-1.4c-1.4,0-2.4,0.5-3.1,1.4
		C122.6,362.1,122.2,363.5,122.2,365.3z"/>
	<path fill="#FFFFFF" d="M138.9,358.3v9.1c0,1.1,0.3,2,0.8,2.6c0.5,0.6,1.3,0.8,2.4,0.8c1.5,0,2.5-0.4,3.2-1.2c0.7-0.8,1-2.1,1-3.9
		v-7.4h2.1v14h-1.8l-0.3-1.9h-0.1c-0.4,0.7-1,1.2-1.8,1.6s-1.6,0.5-2.6,0.5c-1.7,0-3-0.4-3.8-1.2c-0.8-0.8-1.3-2.1-1.3-3.9v-9.2
		H138.9z"/>
	<path fill="#FFFFFF" d="M166.6,359.9H163v12.4h-2.1v-12.4h-2.5v-1l2.5-0.8v-0.8c0-3.4,1.5-5.2,4.5-5.2c0.7,0,1.6,0.1,2.6,0.4
		l-0.5,1.7c-0.8-0.3-1.5-0.4-2.1-0.4c-0.8,0-1.4,0.3-1.8,0.8s-0.6,1.4-0.6,2.6v0.9h3.6V359.9z"/>
	<path fill="#FFFFFF" d="M181.4,365.3c0,2.3-0.6,4.1-1.7,5.3c-1.1,1.3-2.7,1.9-4.8,1.9c-1.3,0-2.4-0.3-3.3-0.9
		c-1-0.6-1.7-1.4-2.2-2.5c-0.5-1.1-0.8-2.4-0.8-3.9c0-2.3,0.6-4.1,1.7-5.3c1.1-1.3,2.7-1.9,4.8-1.9c2,0,3.5,0.7,4.7,2
		C180.9,361.3,181.4,363,181.4,365.3z M170.8,365.3c0,1.8,0.4,3.2,1.1,4.1c0.7,0.9,1.8,1.4,3.2,1.4c1.4,0,2.4-0.5,3.2-1.4
		c0.7-0.9,1.1-2.3,1.1-4.1c0-1.8-0.4-3.1-1.1-4.1c-0.7-0.9-1.8-1.4-3.2-1.4c-1.4,0-2.4,0.5-3.1,1.4
		C171.1,362.1,170.8,363.5,170.8,365.3z"/>
	<path fill="#FFFFFF" d="M191.8,358c0.6,0,1.2,0.1,1.7,0.2l-0.3,2c-0.6-0.1-1.1-0.2-1.5-0.2c-1.1,0-2.1,0.5-2.9,1.4
		c-0.8,0.9-1.2,2.1-1.2,3.4v7.5h-2.1v-14h1.7l0.2,2.6h0.1c0.5-0.9,1.1-1.6,1.9-2.1C190.1,358.3,190.9,358,191.8,358z"/>
	<path fill="#FFFFFF" d="M201.2,358.3h2.3l3.1,8c0.7,1.8,1.1,3.1,1.3,3.9h0.1c0.1-0.4,0.3-1.2,0.7-2.2s1.5-4.3,3.5-9.7h2.3l-6,15.9
		c-0.6,1.6-1.3,2.7-2.1,3.4c-0.8,0.7-1.8,1-2.9,1c-0.6,0-1.3-0.1-1.9-0.2v-1.7c0.5,0.1,1,0.2,1.6,0.2c1.5,0,2.5-0.8,3.1-2.5l0.8-2
		L201.2,358.3z"/>
	<path fill="#FFFFFF" d="M228.9,365.3c0,2.3-0.6,4.1-1.7,5.3c-1.1,1.3-2.7,1.9-4.8,1.9c-1.3,0-2.4-0.3-3.3-0.9
		c-1-0.6-1.7-1.4-2.2-2.5c-0.5-1.1-0.8-2.4-0.8-3.9c0-2.3,0.6-4.1,1.7-5.3c1.1-1.3,2.7-1.9,4.8-1.9c2,0,3.5,0.7,4.7,2
		C228.4,361.3,228.9,363,228.9,365.3z M218.3,365.3c0,1.8,0.4,3.2,1.1,4.1s1.8,1.4,3.2,1.4c1.4,0,2.4-0.5,3.2-1.4
		c0.7-0.9,1.1-2.3,1.1-4.1c0-1.8-0.4-3.1-1.1-4.1c-0.7-0.9-1.8-1.4-3.2-1.4c-1.4,0-2.4,0.5-3.1,1.4S218.3,363.5,218.3,365.3z"/>
	<path fill="#FFFFFF" d="M234.9,358.3v9.1c0,1.1,0.3,2,0.8,2.6c0.5,0.6,1.3,0.8,2.4,0.8c1.5,0,2.5-0.4,3.2-1.2c0.7-0.8,1-2.1,1-3.9
		v-7.4h2.1v14h-1.8l-0.3-1.9h-0.1c-0.4,0.7-1,1.2-1.8,1.6s-1.6,0.5-2.6,0.5c-1.7,0-3-0.4-3.8-1.2c-0.8-0.8-1.3-2.1-1.3-3.9v-9.2
		H234.9z"/>
	<path fill="#FFFFFF" d="M255.6,358c0.6,0,1.2,0.1,1.7,0.2l-0.3,2c-0.6-0.1-1.1-0.2-1.5-0.2c-1.1,0-2.1,0.5-2.9,1.4
		c-0.8,0.9-1.2,2.1-1.2,3.4v7.5h-2.1v-14h1.8l0.2,2.6h0.1c0.5-0.9,1.1-1.6,1.9-2.1C253.9,358.3,254.8,358,255.6,358z"/>
	<path fill="#FFFFFF" d="M276.3,368.5c0,1.3-0.5,2.3-1.5,3s-2.3,1.1-4.1,1.1c-1.9,0-3.3-0.3-4.3-0.9v-2c0.7,0.3,1.4,0.6,2.2,0.8
		s1.5,0.3,2.2,0.3c1.1,0,2-0.2,2.6-0.5s0.9-0.9,0.9-1.6c0-0.5-0.2-1-0.7-1.4c-0.5-0.4-1.4-0.8-2.8-1.4c-1.3-0.5-2.2-0.9-2.8-1.3
		c-0.5-0.4-1-0.8-1.2-1.2s-0.4-1-0.4-1.6c0-1.1,0.5-2,1.4-2.7c0.9-0.7,2.2-1,3.8-1c1.5,0,3,0.3,4.4,0.9l-0.8,1.7
		c-1.4-0.6-2.7-0.9-3.8-0.9c-1,0-1.8,0.2-2.3,0.5s-0.8,0.7-0.8,1.3c0,0.4,0.1,0.7,0.3,1s0.5,0.5,0.9,0.8c0.4,0.2,1.2,0.6,2.5,1
		c1.7,0.6,2.8,1.2,3.4,1.8C276,366.8,276.3,367.5,276.3,368.5z"/>
	<path fill="#FFFFFF" d="M282,358.3v9.1c0,1.1,0.3,2,0.8,2.6c0.5,0.6,1.3,0.8,2.4,0.8c1.5,0,2.5-0.4,3.2-1.2c0.7-0.8,1-2.1,1-3.9
		v-7.4h2.1v14h-1.8l-0.3-1.9h-0.1c-0.4,0.7-1,1.2-1.8,1.6s-1.6,0.5-2.6,0.5c-1.7,0-3-0.4-3.8-1.2c-0.8-0.8-1.3-2.1-1.3-3.9v-9.2H282
		z"/>
	<path fill="#FFFFFF" d="M302.8,372.5c-0.9,0-1.7-0.2-2.5-0.5s-1.4-0.9-1.9-1.6h-0.2c0.1,0.8,0.2,1.6,0.2,2.3v5.8h-2.1v-20.3h1.7
		l0.3,1.9h0.1c0.5-0.8,1.2-1.3,1.9-1.7s1.6-0.5,2.5-0.5c1.9,0,3.3,0.6,4.3,1.9s1.5,3,1.5,5.3c0,2.3-0.5,4.1-1.5,5.4
		C306.1,371.9,304.6,372.5,302.8,372.5z M302.5,359.8c-1.4,0-2.5,0.4-3.1,1.2c-0.6,0.8-1,2.1-1,3.8v0.5c0,2,0.3,3.4,1,4.2
		c0.7,0.8,1.7,1.3,3.2,1.3c1.2,0,2.2-0.5,2.8-1.5c0.7-1,1-2.3,1-4c0-1.7-0.3-3.1-1-4S303.7,359.8,302.5,359.8z"/>
	<path fill="#FFFFFF" d="M319.1,372.5c-0.9,0-1.7-0.2-2.5-0.5s-1.4-0.9-1.9-1.6h-0.2c0.1,0.8,0.2,1.6,0.2,2.3v5.8h-2.1v-20.3h1.7
		l0.3,1.9h0.1c0.5-0.8,1.2-1.3,1.9-1.7s1.6-0.5,2.5-0.5c1.9,0,3.3,0.6,4.3,1.9s1.5,3,1.5,5.3c0,2.3-0.5,4.1-1.5,5.4
		C322.3,371.9,320.9,372.5,319.1,372.5z M318.8,359.8c-1.4,0-2.5,0.4-3.1,1.2c-0.6,0.8-1,2.1-1,3.8v0.5c0,2,0.3,3.4,1,4.2
		c0.7,0.8,1.7,1.3,3.2,1.3c1.2,0,2.2-0.5,2.8-1.5c0.7-1,1-2.3,1-4c0-1.7-0.3-3.1-1-4S320,359.8,318.8,359.8z"/>
	<path fill="#FFFFFF" d="M341,365.3c0,2.3-0.6,4.1-1.7,5.3c-1.1,1.3-2.7,1.9-4.8,1.9c-1.3,0-2.4-0.3-3.3-0.9c-1-0.6-1.7-1.4-2.2-2.5
		c-0.5-1.1-0.8-2.4-0.8-3.9c0-2.3,0.6-4.1,1.7-5.3c1.1-1.3,2.7-1.9,4.8-1.9c2,0,3.5,0.7,4.7,2C340.4,361.3,341,363,341,365.3z
		 M330.3,365.3c0,1.8,0.4,3.2,1.1,4.1s1.8,1.4,3.2,1.4c1.4,0,2.4-0.5,3.2-1.4c0.7-0.9,1.1-2.3,1.1-4.1c0-1.8-0.4-3.1-1.1-4.1
		c-0.7-0.9-1.8-1.4-3.2-1.4c-1.4,0-2.4,0.5-3.1,1.4S330.3,363.5,330.3,365.3z"/>
	<path fill="#FFFFFF" d="M351.3,358c0.6,0,1.2,0.1,1.7,0.2l-0.3,2c-0.6-0.1-1.1-0.2-1.5-0.2c-1.1,0-2.1,0.5-2.9,1.4
		c-0.8,0.9-1.2,2.1-1.2,3.4v7.5h-2.1v-14h1.8l0.2,2.6h0.1c0.5-0.9,1.1-1.6,1.9-2.1C349.6,358.3,350.4,358,351.3,358z"/>
	<path fill="#FFFFFF" d="M360.4,370.8c0.4,0,0.7,0,1.1-0.1c0.3-0.1,0.6-0.1,0.8-0.2v1.6c-0.2,0.1-0.6,0.2-1,0.3
		c-0.4,0.1-0.8,0.1-1.2,0.1c-2.7,0-4.1-1.4-4.1-4.3v-8.3h-2v-1l2-0.9l0.9-3h1.2v3.2h4.1v1.6h-4.1v8.2c0,0.8,0.2,1.5,0.6,1.9
		S359.7,370.8,360.4,370.8z"/>
	<path fill="#FFFFFF" d="M365.1,370.9c0-0.6,0.1-1,0.4-1.3s0.6-0.4,1.1-0.4c0.5,0,0.9,0.1,1.2,0.4c0.3,0.3,0.4,0.7,0.4,1.3
		c0,0.6-0.1,1-0.4,1.3c-0.3,0.3-0.7,0.4-1.1,0.4c-0.4,0-0.8-0.1-1.1-0.4C365.2,372,365.1,371.5,365.1,370.9z"/>
</g>
<line fill="none" stroke="#FFFFFF" stroke-miterlimit="10" x1="0" y1="317.9" x2="392.2" y2="317.9"/>
</svg>
