<?xml version="1.0" encoding="utf-8"?>
<!-- Generator: Adobe Illustrator 18.1.0, SVG Export Plug-In . SVG Version: 6.00 Build 0)  -->
<svg version="1.1" id="Layer_1" xmlns="http://www.w3.org/2000/svg" xmlns:xlink="http://www.w3.org/1999/xlink" x="0px" y="0px"
	 viewBox="0 0 77.3 103.8" enable-background="new 0 0 77.3 103.8" xml:space="preserve">
<path fill="#FFFFFF" d="M38.7,0C17.3,0,0,17.3,0,38.7c0,16.7,10.4,33.5,19.1,44.6c7.4,9.5,15.3,16.9,19.5,20.5
	c4.2-3.6,12.1-11.1,19.5-20.5c8.7-11.1,19.1-27.9,19.1-44.6C77.3,17.3,60,0,38.7,0z M32.6,22.1l7.2-8.3l7.2,7.8v25.9
	c-1,0-8.3,0.1-14.3,2.1V22.1z M13,30.1h12.7v21.8c-6.3,2.9-10.2,5.9-12.7,7.9V30.1z M38.5,93.3c-3.6-3.5-8.8-8.8-13.9-15.3
	c-1.4-1.8-2.7-3.5-3.9-5.2c15.4-2.6,22.7,7.9,25.3,12.9C43.2,88.8,40.6,91.3,38.5,93.3z M52.5,77.7C48,71,34.7,60.4,17,67
	c8.5-8.8,27.9-16.5,47.9-8.4C64.9,58.6,61.9,66.4,52.5,77.7z M54.7,48V35.8h12.7v15.4C63.5,49.6,59.2,48.6,54.7,48z"/>
</svg>
