<?xml version="1.0" encoding="utf-8"?>
<!-- Generator: Adobe Illustrator 18.1.0, SVG Export Plug-In . SVG Version: 6.00 Build 0)  -->
<svg version="1.1" id="Layer_1" xmlns="http://www.w3.org/2000/svg" xmlns:xlink="http://www.w3.org/1999/xlink" x="0px" y="0px"
	 viewBox="0 0 401.8 124.2" enable-background="new 0 0 401.8 124.2" xml:space="preserve">
<g>
	<g>
		<path fill="#FFFFFF" d="M38.7,45.6h-2.5l-9.4-33c-0.8-2.7-1.4-4.9-1.8-6.7c-0.3,1.7-0.8,3.7-1.3,5.9c-0.6,2.2-3.7,13.5-9.4,33.9
			h-2.5L0,2.8h3.1l7.5,27.6c0.3,1.1,0.6,2.1,0.8,3.1c0.3,0.9,0.5,1.8,0.7,2.7c0.2,0.8,0.4,1.6,0.6,2.4c0.2,0.8,0.3,1.5,0.5,2.3
			c0.5-2.7,1.5-6.7,3-12.1l7.3-26h3.3l8.6,29.8c1,3.4,1.7,6.2,2.1,8.3c0.3-1.4,0.6-2.9,1-4.5c0.4-1.6,3.4-12.8,9-33.7h3L38.7,45.6z"
			/>
		<path fill="#FFFFFF" d="M80.2,45.6V24.9c0-3.2-0.7-5.5-2-7c-1.3-1.5-3.4-2.2-6.3-2.2c-3.8,0-6.6,1-8.4,2.9c-1.8,1.9-2.7,5-2.7,9.4
			v17.6H58V0h2.9v14.5l-0.1,4.1h0.2c1.2-1.9,2.7-3.3,4.5-4.2c1.8-0.9,4.1-1.3,6.8-1.3C79.4,13.1,83,17,83,24.8v20.8H80.2z"/>
		<path fill="#FFFFFF" d="M120.3,29.6c0,5.2-1.3,9.3-3.8,12.2c-2.5,2.9-6,4.4-10.4,4.4c-2.8,0-5.3-0.7-7.4-2
			c-2.1-1.3-3.8-3.3-4.9-5.8c-1.1-2.5-1.7-5.4-1.7-8.7c0-5.2,1.3-9.2,3.8-12.1c2.5-2.9,6-4.4,10.4-4.4c4.4,0,7.8,1.5,10.3,4.4
			C119,20.5,120.3,24.5,120.3,29.6z M95.2,29.6c0,4.4,1,7.8,2.9,10.2c1.9,2.5,4.6,3.7,8.2,3.7c3.5,0,6.2-1.2,8.2-3.7
			c1.9-2.5,2.9-5.9,2.9-10.2c0-4.4-1-7.8-2.9-10.2c-1.9-2.4-4.7-3.6-8.2-3.6c-3.5,0-6.2,1.2-8.1,3.6C96.1,21.8,95.2,25.2,95.2,29.6z
			"/>
		<path fill="#FFFFFF" d="M131.9,2.8l0.4,0.6c-1.5,5.2-3.2,9.9-5.1,14.1h-1.9c0.6-1.9,1.2-4.2,1.8-7.1c0.6-2.8,1.1-5.4,1.4-7.6
			H131.9z"/>
		<path fill="#FFFFFF" d="M158.8,37.3c0,2.9-1.1,5-3.3,6.6c-2.2,1.5-5.2,2.3-9.2,2.3c-4.3,0-7.6-0.7-10.1-2v-3.1
			c3.2,1.6,6.6,2.4,10.1,2.4c3.1,0,5.5-0.5,7.2-1.6c1.6-1,2.4-2.4,2.4-4.2c0-1.6-0.6-2.9-1.9-4c-1.3-1.1-3.4-2.2-6.4-3.2
			c-3.2-1.2-5.4-2.1-6.7-3c-1.3-0.8-2.3-1.8-2.9-2.8c-0.7-1-1-2.3-1-3.8c0-2.4,1-4.3,3-5.7c2-1.4,4.8-2.1,8.4-2.1
			c3.4,0,6.7,0.6,9.8,1.9l-1.1,2.6c-3.1-1.3-6-1.9-8.7-1.9c-2.6,0-4.7,0.4-6.2,1.3c-1.5,0.9-2.3,2.1-2.3,3.6c0,1.7,0.6,3,1.8,4
			c1.2,1,3.5,2.1,6.9,3.3c2.9,1,5,2,6.3,2.8c1.3,0.8,2.3,1.8,2.9,2.8C158.4,34.6,158.8,35.9,158.8,37.3z"/>
		<path fill="#FFFFFF" d="M192.2,43.6c1.8,0,3.4-0.2,4.8-0.5v2.3c-1.4,0.5-3,0.7-4.9,0.7c-2.8,0-4.9-0.8-6.2-2.3
			c-1.3-1.5-2-3.9-2-7.1V16.3h-4.7v-1.7l4.7-1.3l1.5-7.2h1.5v7.7h9.3v2.5h-9.3v20.2c0,2.4,0.4,4.2,1.3,5.4
			C189,43,190.3,43.6,192.2,43.6z"/>
		<path fill="#FFFFFF" d="M226.7,45.6V24.9c0-3.2-0.7-5.5-2-7c-1.3-1.5-3.4-2.2-6.3-2.2c-3.8,0-6.6,1-8.4,2.9
			c-1.8,1.9-2.7,5-2.7,9.4v17.6h-2.9V0h2.9v14.5l-0.1,4.1h0.2c1.2-1.9,2.7-3.3,4.5-4.2c1.8-0.9,4.1-1.3,6.8-1.3
			c7.2,0,10.8,3.9,10.8,11.6v20.8H226.7z"/>
		<path fill="#FFFFFF" d="M253.3,46.2c-4.6,0-8.2-1.4-10.8-4.3c-2.6-2.9-3.9-6.8-3.9-12c0-5.1,1.2-9.1,3.8-12.2
			c2.5-3.1,5.9-4.6,10.1-4.6c3.7,0,6.7,1.3,8.9,3.9c2.2,2.6,3.3,6.2,3.3,10.7v2.3h-22.9c0,4.4,1.1,7.7,3.1,10c2,2.3,4.9,3.5,8.6,3.5
			c1.8,0,3.4-0.1,4.8-0.4c1.4-0.3,3.1-0.8,5.2-1.6v2.6c-1.8,0.8-3.5,1.3-5,1.6C256.8,46,255.1,46.2,253.3,46.2z M252.4,15.7
			c-3.1,0-5.5,1-7.4,3c-1.9,2-2.9,4.9-3.3,8.7h19.7c0-3.7-0.8-6.6-2.4-8.7C257.5,16.7,255.3,15.7,252.4,15.7z"/>
		<path fill="#FFFFFF" d="M303.6,13.1c4.5,0,7.8,1.4,10.1,4.2c2.3,2.8,3.4,6.9,3.4,12.3c0,5.3-1.2,9.4-3.6,12.2
			c-2.4,2.9-5.7,4.3-10,4.3c-2.3,0-4.3-0.5-6.1-1.4s-3.3-2.3-4.3-4h-0.3l-0.8,4.8h-1.8V0h2.9v11.5c0,1.7,0,3.3-0.1,4.7l-0.1,2.5h0.2
			c1.2-1.9,2.7-3.3,4.4-4.2C299.1,13.6,301.2,13.1,303.6,13.1z M303.5,15.8c-3.8,0-6.4,1.1-8.1,3.2c-1.6,2.1-2.4,5.7-2.4,10.6v0.5
			c0,4.8,0.8,8.3,2.5,10.3c1.7,2.1,4.3,3.1,7.9,3.1c3.5,0,6.1-1.2,7.9-3.6c1.8-2.4,2.6-5.9,2.6-10.4C314,20.4,310.5,15.8,303.5,15.8
			z"/>
		<path fill="#FFFFFF" d="M339.3,46.2c-4.6,0-8.2-1.4-10.8-4.3c-2.6-2.9-3.9-6.8-3.9-12c0-5.1,1.2-9.1,3.8-12.2
			c2.5-3.1,5.9-4.6,10.1-4.6c3.8,0,6.7,1.3,8.9,3.9c2.2,2.6,3.3,6.2,3.3,10.7v2.3h-22.9c0,4.4,1.1,7.7,3.1,10c2,2.3,4.9,3.5,8.6,3.5
			c1.8,0,3.4-0.1,4.8-0.4c1.4-0.3,3.1-0.8,5.2-1.6v2.6c-1.8,0.8-3.5,1.3-5,1.6C342.8,46,341.2,46.2,339.3,46.2z M338.5,15.7
			c-3.1,0-5.5,1-7.4,3c-1.9,2-2.9,4.9-3.3,8.7h19.7c0-3.7-0.8-6.6-2.4-8.7C343.5,16.7,341.3,15.7,338.5,15.7z"/>
		<path fill="#FFFFFF" d="M379.7,37.3c0,2.9-1.1,5-3.3,6.6s-5.2,2.3-9.2,2.3c-4.3,0-7.6-0.7-10.1-2v-3.1c3.2,1.6,6.6,2.4,10.1,2.4
			c3.1,0,5.5-0.5,7.2-1.6c1.6-1,2.4-2.4,2.4-4.2c0-1.6-0.6-2.9-1.9-4c-1.3-1.1-3.4-2.2-6.4-3.2c-3.2-1.2-5.4-2.1-6.7-3
			c-1.3-0.8-2.3-1.8-2.9-2.8c-0.7-1-1-2.3-1-3.8c0-2.4,1-4.3,3-5.7c2-1.4,4.8-2.1,8.4-2.1c3.4,0,6.7,0.6,9.8,1.9l-1.1,2.6
			c-3.1-1.3-6-1.9-8.7-1.9c-2.6,0-4.7,0.4-6.2,1.3c-1.5,0.9-2.3,2.1-2.3,3.6c0,1.7,0.6,3,1.8,4c1.2,1,3.5,2.1,6.9,3.3
			c2.9,1,5,2,6.3,2.8c1.3,0.8,2.3,1.8,2.9,2.8C379.4,34.6,379.7,35.9,379.7,37.3z"/>
		<path fill="#FFFFFF" d="M397,43.6c1.8,0,3.4-0.2,4.8-0.5v2.3c-1.4,0.5-3,0.7-4.9,0.7c-2.8,0-4.9-0.8-6.2-2.3c-1.3-1.5-2-3.9-2-7.1
			V16.3h-4.7v-1.7l4.7-1.3l1.5-7.2h1.5v7.7h9.3v2.5h-9.3v20.2c0,2.4,0.4,4.2,1.3,5.4C393.8,43,395.1,43.6,397,43.6z"/>
	</g>
	<g>
		<g>
			<g>
				<path fill-rule="evenodd" clip-rule="evenodd" fill="#FFFFFF" d="M291.2,106.3c-0.7,1.9-1.3,3.6-2,5.3c-1.2,2.8-2.4,5.5-4.5,7.8
					c-1.3,1.4-2.8,2.3-4.8,2.3c-1.5,0-2.8-0.6-3.9-1.5c-1.8-1.4-3-3.3-4-5.4c-2-4.5-2.6-9.1-2.1-14c0.3-3.1,1-6,2.3-8.8
					c1-2.1,2.2-4.1,4.1-5.6c3.1-2.5,6.5-2.9,10.2-1.7c2.2,0.7,4,2,5.4,3.9c0.1,0.1,0.1,0.2,0.2,0.3c0.1,0,0.1,0,0.2-0.1
					c0.1-0.3,0.1-0.7,0.2-1c0.1-0.4,0.1-0.9,0.1-1.3c0.2-1,0.5-1.3,1.5-1.2c0.5,0,0.9,0.1,1.4,0.3c1.7,0.6,3.1,1.6,4.2,3.1
					c0.7,0.9,1,2,0.9,3.2c-0.3,3.8-0.7,7.5-1,11.3c-0.2,3.1-0.2,6.2-0.2,9.3c0,1,0.2,2,0.4,2.9c0.4,1.8,1.9,2.3,3.4,1.4
					c0.6-0.4,1.2-0.8,1.7-1.4c0.8-0.9,1.4-1.9,2-2.8c-0.4-1.4-0.8-2.6-1.1-3.8c-1.1-4.4-1.1-8.8,0-13.2c0.7-3.1,2-5.9,4.1-8.3
					c2.7-3.1,6.2-4.8,10.4-4.4c3.2,0.3,6.1,1.5,7.8,4.4c1.8,3,1.8,6.1,0.3,9.2c-0.9,1.8-2.7,2.6-4.7,2.2c-1.1-0.2-2.1-0.7-3-1.5
					c1-1.6,1.4-3.4,1.5-5.3c0-0.9,0-1.9-0.2-2.7c-0.3-1.4-1.5-2.1-3-1.6c-0.8,0.2-1.5,0.7-2,1.4c-1.2,1.5-1.8,3.2-2.2,5
					c-0.8,3.3-1,6.7-0.7,10.1c0.2,2.4,0.6,4.7,1.4,6.9c0.5,1.4,1.2,2.8,2.3,3.9c1.2,1.3,2.7,1.9,4.4,2c3.9,0.3,6.8-1.5,9.1-4.4
					c1.4-1.7,2.3-3.7,2.8-5.9c0.1-0.3,0.2-0.6,0.2-0.8c1.5,0.1,2.4,1,2.5,2.5c0.1,1.5-0.2,3-0.8,4.4c-2.4,5.2-6.3,8.4-12,9.2
					c-5.7,0.9-10.5-1.1-14.5-5.2c-0.2-0.2-0.3-0.3-0.5-0.5c-0.9,1.5-2,2.8-3.4,3.9c-1.4,1-2.9,1.8-4.7,1.8c-3.2,0-6-1.1-8.1-3.7
					c-0.8-1-0.9-2.2-1.2-3.4c-0.4-2.3-0.5-4.5-0.4-6.8C291.2,107.3,291.2,106.9,291.2,106.3z M287,88.6c-0.4,0.1-0.5,0.1-0.7,0.1
					c-1.1,0.2-1.9,0.9-2.6,1.8c-0.8,1.1-1.4,2.2-1.9,3.5c-2,5.3-2.7,10.8-2.4,16.4c0.1,1,0.4,2,0.6,3c0.1,0.5,0.5,1,0.8,1.3
					c0.4,0.5,0.7,0.5,1.2,0.2c0.5-0.3,1.1-0.7,1.4-1.2c0.7-0.9,1.4-1.9,2-3c2.7-5.1,4.4-10.5,5.7-16c0-0.2,0.1-0.4,0-0.6
					c-0.4-2-1.2-3.7-2.8-4.8C288.1,88.9,287.4,88.8,287,88.6z"/>
			</g>
			<g>
				<path fill-rule="evenodd" clip-rule="evenodd" fill="#FFFFFF" d="M254.1,80.3c-0.1-1.5-0.2-2.8-0.3-4.1
					c-0.2-1.5-0.6-2.9-1.4-4.2c-1.5-2.4-3.9-3.4-6.6-2.6c-1.3,0.4-2.5,1.1-3.4,2.1c-1.6,1.9-1.8,4.4-0.6,6.7
					c0.6,1.2,1.5,2.2,2.4,3.2c2.3,2.4,4.9,4.3,7.4,6.3c3.1,2.4,6.1,4.7,9.1,7.2c2.2,1.8,4,4,5.3,6.5c2.5,4.9,2,9.6-1.1,14
					c-2.5,3.5-5.9,5.8-10,7.3c-4.5,1.6-9,2-13.7,1.3c-2.4-0.3-4.6-1-6.7-2.1c-1.6-0.9-3.1-2-4.1-3.6c-1.8-2.7-1.9-5.6-0.7-8.5
					c1.5-3.7,4.4-6.1,8.3-7c0.8-0.2,1.7-0.1,2.6-0.1c0.3,0,0.6,0.1,0.9,0.3c0.4,0.2,0.7,0.6,0.7,1.1c-0.1,0.5-0.4,0.8-0.9,1
					c-0.9,0.2-1.8,0.6-2.6,1.2c-2.7,2-2.9,5.5-0.6,7.9c0.9,0.9,2,1.6,3.1,2.1c4,1.6,8.1,2.1,12.3,1c1.2-0.3,2.4-0.9,3.3-1.7
					c2-1.6,2.6-3.8,1.8-6.3c-0.6-1.9-1.7-3.4-3-4.9c-2.4-2.8-5.3-5-8.2-7.2c-2.2-1.6-4.5-3.1-6.6-4.8c-2.9-2.4-5.4-5.1-7.1-8.5
					c-2.3-4.8-2-9.4,1.3-13.6c1.9-2.5,4.6-4,7.6-4.8c5.1-1.4,10-0.9,14.5,1.9c2,1.2,3.6,2.9,4.5,5.1c0.8,2.2,0.5,4.3-0.4,6.4
					c-0.5,1-1.5,1.5-2.5,1.8C257.4,80.8,255.8,80.5,254.1,80.3z"/>
			</g>
		</g>
		<g>
			<g>
				<path fill="#FFFFFF" d="M65.6,81.7c0-1.5,1.2-2.4,2.7-2.4c1.6,0,2.7,1,2.7,2.4v0.8c0,1.4-1.2,2.5-2.7,2.5c-1.5,0-2.7-1-2.7-2.5
					V81.7z M66,93.4c0-1.3,1-2.3,2.3-2.3c1.3,0,2.3,1,2.3,2.3v26.8c0,1.3-1,2.3-2.3,2.3c-1.3,0-2.3-1-2.3-2.3V93.4z"/>
			</g>
			<g>
				<path fill="#FFFFFF" d="M78.9,93.4c0-1.3,1-2.3,2.3-2.3c1.3,0,2.3,1,2.3,2.3v3.3c2-3.3,5.3-6,10.6-6c7.5,0,11.8,5,11.8,12.4
					v17.2c0,1.3-1,2.3-2.3,2.3c-1.3,0-2.3-1-2.3-2.3v-16c0-5.7-3.1-9.3-8.5-9.3c-5.3,0-9.3,3.9-9.3,9.7v15.7c0,1.3-1,2.3-2.3,2.3
					c-1.3,0-2.3-1-2.3-2.3V93.4z"/>
			</g>
			<g>
				<path fill="#FFFFFF" d="M130.5,114.1V95.5h-2.5c-1.1,0-2-1-2-2c0-1.1,1-2,2-2h2.5v-7.3c0-1.3,1-2.3,2.3-2.3
					c1.3,0,2.3,1.1,2.3,2.3v7.3h8c1.1,0,2.1,1,2.1,2c0,1.1-1,2-2.1,2h-8v18.1c0,3.8,2.1,5.1,5.2,5.1c1.6,0,2.4-0.4,2.8-0.4
					c1.1,0,2,0.9,2,2c0,0.8-0.5,1.5-1.3,1.8c-1.3,0.5-2.8,0.8-4.5,0.8C134.2,122.8,130.5,120.4,130.5,114.1z"/>
			</g>
			<g>
				<path fill="#FFFFFF" d="M150.6,80.7c0-1.3,1-2.3,2.3-2.3c1.3,0,2.3,1.1,2.3,2.3v16.1c2-3.3,5.3-6,10.6-6c7.5,0,11.8,5,11.8,12.4
					v17.2c0,1.3-1,2.3-2.3,2.3c-1.3,0-2.3-1-2.3-2.3v-16c0-5.7-3.1-9.3-8.5-9.3c-5.3,0-9.3,3.9-9.3,9.7v15.7c0,1.3-1,2.3-2.3,2.3
					c-1.3,0-2.3-1-2.3-2.3V80.7z"/>
			</g>
			<g>
				<path fill="#FFFFFF" d="M198.5,123c-8.5,0-15.4-6.5-15.4-16.1v-0.1c0-8.9,6.3-16.1,14.8-16.1c9.1,0,14.3,7.5,14.3,15.7
					c0,1.3-1,2.2-2.1,2.2h-22.4c0.7,6.7,5.4,10.5,10.9,10.5c3.8,0,6.6-1.5,8.9-3.6c0.4-0.3,0.8-0.5,1.3-0.5c1.1,0,2,0.9,2,2
					c0,0.5-0.2,1.1-0.7,1.5C207.2,121.2,203.8,123,198.5,123z M207.7,105.1c-0.5-5.6-3.7-10.5-9.9-10.5c-5.4,0-9.4,4.5-10,10.5
					H207.7z"/>
			</g>
		</g>
	</g>
	<g>
		<path fill="#FFFFFF" d="M353.1,110.5c-0.8,0-1.4-0.7-1.6-1.6l-0.7-6.7c-0.1-1.1,0.6-2,1.7-2.1c6.4-0.5,10.4-3.3,10.4-8.3v-0.1
			c0-4.3-3.4-7.8-8.8-7.8c-4,0-7.2,1.7-9.9,4.7c-0.4,0.4-1,0.7-1.6,0.7c-1.2,0-2.2-0.9-2.2-2.1c0-0.5,0.2-1.1,0.7-1.6
			c3.2-3.5,7.3-5.9,13.1-5.9c8.1,0,13.4,5,13.4,11.9v0.1c0,7.5-5.6,11.2-12.5,12.2l-0.4,5.2c-0.1,1-0.7,1.6-1.6,1.6H353.1z
			 M353.2,115.5c1.6,0,2.9,1.2,2.9,2.8v1.2c0,1.6-1.3,2.9-2.9,2.9c-1.6,0-2.9-1.3-2.9-2.9v-1.2C350.3,116.7,351.6,115.5,353.2,115.5
			z"/>
	</g>
</g>
</svg>
